<mxfile host="Electron" agent="Mozilla/5.0 (Windows NT 10.0; Win64; x64) AppleWebKit/537.36 (KHTML, like Gecko) draw.io/27.0.9 Chrome/134.0.6998.205 Electron/35.4.0 Safari/537.36" version="27.0.9" pages="2">
  <diagram name="GamePlay" id="DOSjQAWrbLeN4kcSaUEP">
    <mxGraphModel dx="696" dy="618" grid="1" gridSize="10" guides="1" tooltips="1" connect="1" arrows="1" fold="1" page="1" pageScale="1" pageWidth="850" pageHeight="1100" math="0" shadow="0">
      <root>
        <mxCell id="0" />
        <mxCell id="1" parent="0" />
        <mxCell id="1uzLsssoZajP0sZZgNJ9-1" style="edgeStyle=orthogonalEdgeStyle;rounded=0;orthogonalLoop=1;jettySize=auto;html=1;endArrow=none;startFill=0;" edge="1" parent="1" source="mY5YV_t0txaSZ2GaQjxv-9" target="uoKRKgGKhotD1R5R2kxY-11">
          <mxGeometry relative="1" as="geometry" />
        </mxCell>
        <mxCell id="1uzLsssoZajP0sZZgNJ9-3" value="2...*" style="edgeLabel;html=1;align=center;verticalAlign=middle;resizable=0;points=[];" vertex="1" connectable="0" parent="1uzLsssoZajP0sZZgNJ9-1">
          <mxGeometry x="-0.9196" y="-2" relative="1" as="geometry">
            <mxPoint x="22" y="3" as="offset" />
          </mxGeometry>
        </mxCell>
        <mxCell id="mY5YV_t0txaSZ2GaQjxv-9" value="Player" style="swimlane;fontStyle=0;childLayout=stackLayout;horizontal=1;startSize=30;fillColor=none;horizontalStack=0;resizeParent=1;resizeParentMax=0;resizeLast=0;collapsible=1;marginBottom=0;whiteSpace=wrap;html=1;" parent="1" vertex="1">
          <mxGeometry x="110" y="160" width="140" height="108" as="geometry" />
        </mxCell>
        <mxCell id="1uzLsssoZajP0sZZgNJ9-8" value="ID: int" style="text;strokeColor=none;fillColor=none;align=left;verticalAlign=top;spacingLeft=4;spacingRight=4;overflow=hidden;rotatable=0;points=[[0,0.5],[1,0.5]];portConstraint=eastwest;whiteSpace=wrap;html=1;" vertex="1" parent="mY5YV_t0txaSZ2GaQjxv-9">
          <mxGeometry y="30" width="140" height="26" as="geometry" />
        </mxCell>
        <mxCell id="mY5YV_t0txaSZ2GaQjxv-12" value="clicked_mouse: bool" style="text;strokeColor=none;fillColor=none;align=left;verticalAlign=top;spacingLeft=4;spacingRight=4;overflow=hidden;rotatable=0;points=[[0,0.5],[1,0.5]];portConstraint=eastwest;whiteSpace=wrap;html=1;" parent="mY5YV_t0txaSZ2GaQjxv-9" vertex="1">
          <mxGeometry y="56" width="140" height="26" as="geometry" />
        </mxCell>
        <mxCell id="uoKRKgGKhotD1R5R2kxY-14" value="mouse_pos:&amp;nbsp; Vec2&amp;nbsp;" style="text;strokeColor=none;fillColor=none;align=left;verticalAlign=top;spacingLeft=4;spacingRight=4;overflow=hidden;rotatable=0;points=[[0,0.5],[1,0.5]];portConstraint=eastwest;whiteSpace=wrap;html=1;" vertex="1" parent="mY5YV_t0txaSZ2GaQjxv-9">
          <mxGeometry y="82" width="140" height="26" as="geometry" />
        </mxCell>
        <mxCell id="1uzLsssoZajP0sZZgNJ9-2" style="edgeStyle=orthogonalEdgeStyle;rounded=0;orthogonalLoop=1;jettySize=auto;html=1;endArrow=none;startFill=0;" edge="1" parent="1" source="uoKRKgGKhotD1R5R2kxY-5" target="uoKRKgGKhotD1R5R2kxY-9">
          <mxGeometry relative="1" as="geometry" />
        </mxCell>
        <mxCell id="uoKRKgGKhotD1R5R2kxY-5" value="Box" style="swimlane;fontStyle=0;childLayout=stackLayout;horizontal=1;startSize=26;fillColor=none;horizontalStack=0;resizeParent=1;resizeParentMax=0;resizeLast=0;collapsible=1;marginBottom=0;whiteSpace=wrap;html=1;" vertex="1" parent="1">
          <mxGeometry x="400" y="160" width="140" height="52" as="geometry" />
        </mxCell>
        <mxCell id="uoKRKgGKhotD1R5R2kxY-8" value="collieded: bool" style="text;strokeColor=none;fillColor=none;align=left;verticalAlign=top;spacingLeft=4;spacingRight=4;overflow=hidden;rotatable=0;points=[[0,0.5],[1,0.5]];portConstraint=eastwest;whiteSpace=wrap;html=1;" vertex="1" parent="uoKRKgGKhotD1R5R2kxY-5">
          <mxGeometry y="26" width="140" height="26" as="geometry" />
        </mxCell>
        <mxCell id="uoKRKgGKhotD1R5R2kxY-9" value="World" style="swimlane;fontStyle=0;childLayout=stackLayout;horizontal=1;startSize=26;fillColor=none;horizontalStack=0;resizeParent=1;resizeParentMax=0;resizeLast=0;collapsible=1;marginBottom=0;whiteSpace=wrap;html=1;" vertex="1" parent="1">
          <mxGeometry x="400" y="320" width="140" height="104" as="geometry" />
        </mxCell>
        <mxCell id="uoKRKgGKhotD1R5R2kxY-10" value="world_size: int" style="text;strokeColor=none;fillColor=none;align=left;verticalAlign=top;spacingLeft=4;spacingRight=4;overflow=hidden;rotatable=0;points=[[0,0.5],[1,0.5]];portConstraint=eastwest;whiteSpace=wrap;html=1;" vertex="1" parent="uoKRKgGKhotD1R5R2kxY-9">
          <mxGeometry y="26" width="140" height="26" as="geometry" />
        </mxCell>
        <mxCell id="uoKRKgGKhotD1R5R2kxY-11" value="+ field: type" style="text;strokeColor=none;fillColor=none;align=left;verticalAlign=top;spacingLeft=4;spacingRight=4;overflow=hidden;rotatable=0;points=[[0,0.5],[1,0.5]];portConstraint=eastwest;whiteSpace=wrap;html=1;" vertex="1" parent="uoKRKgGKhotD1R5R2kxY-9">
          <mxGeometry y="52" width="140" height="26" as="geometry" />
        </mxCell>
        <mxCell id="uoKRKgGKhotD1R5R2kxY-12" value="+ field: type" style="text;strokeColor=none;fillColor=none;align=left;verticalAlign=top;spacingLeft=4;spacingRight=4;overflow=hidden;rotatable=0;points=[[0,0.5],[1,0.5]];portConstraint=eastwest;whiteSpace=wrap;html=1;" vertex="1" parent="uoKRKgGKhotD1R5R2kxY-9">
          <mxGeometry y="78" width="140" height="26" as="geometry" />
        </mxCell>
        <mxCell id="1uzLsssoZajP0sZZgNJ9-6" value="AI" style="swimlane;fontStyle=0;childLayout=stackLayout;horizontal=1;startSize=26;fillColor=none;horizontalStack=0;resizeParent=1;resizeParentMax=0;resizeLast=0;collapsible=1;marginBottom=0;whiteSpace=wrap;html=1;" vertex="1" parent="1">
          <mxGeometry x="600" y="170" width="140" height="52" as="geometry" />
        </mxCell>
      </root>
    </mxGraphModel>
  </diagram>
  <diagram id="iz0AiiniHqY6fZmdsaht" name="Ui">
    <mxGraphModel dx="696" dy="618" grid="1" gridSize="10" guides="1" tooltips="1" connect="1" arrows="1" fold="1" page="1" pageScale="1" pageWidth="850" pageHeight="1100" math="0" shadow="0">
      <root>
        <mxCell id="0" />
        <mxCell id="1" parent="0" />
      </root>
    </mxGraphModel>
  </diagram>
</mxfile>
